<?xml version="1.0" standalone="no"?>
<!DOCTYPE svg PUBLIC "-//W3C//DTD SVG 20010904//EN"
 "http://www.w3.org/TR/2001/REC-SVG-20010904/DTD/svg10.dtd">
<svg version="1.0" xmlns="http://www.w3.org/2000/svg"
 width="128.000000pt" height="128.000000pt" viewBox="0 0 128.000000 128.000000"
 preserveAspectRatio="xMidYMid meet">

<g transform="translate(0.000000,128.000000) scale(0.100000,-0.100000)"
fill="#000000" stroke="none">
<path d="M1008 1269 c-146 -21 -282 -75 -391 -153 -101 -72 -221 -202 -287
-310 l-23 -38 231 -230 230 -231 38 23 c67 41 126 88 198 158 176 172 259 361
273 623 6 116 6 117 -20 143 -24 24 -32 26 -109 25 -46 -1 -109 -5 -140 -10z
m-55 -223 c140 -58 142 -274 3 -337 -153 -70 -312 78 -252 235 37 97 150 144
249 102z"/>
<path d="M831 977 c-88 -45 -82 -173 10 -203 63 -21 133 19 145 83 17 88 -76
161 -155 120z"/>
<path d="M187 918 c-21 -7 -51 -44 -108 -130 -43 -66 -79 -129 -79 -139 0 -25
43 -69 67 -69 10 0 35 -3 55 -6 36 -6 37 -6 48 37 19 76 60 172 106 247 l44
72 -53 -1 c-28 0 -65 -5 -80 -11z"/>
<path d="M255 639 c-8 -30 -18 -72 -21 -94 l-5 -40 140 -140 140 -139 63 13
c34 7 75 18 90 24 l28 12 -209 209 -209 209 -17 -54z"/>
<path d="M71 347 c-59 -60 -72 -79 -66 -96 12 -40 47 -25 125 54 63 63 73 78
64 93 -22 35 -47 24 -123 -51z"/>
<path d="M846 269 c-44 -26 -124 -62 -178 -80 l-99 -33 6 -50 c8 -61 27 -94
59 -102 28 -7 40 -1 170 84 110 73 129 101 124 181 l-3 47 -79 -47z"/>
<path d="M127 182 c-70 -70 -127 -134 -127 -143 0 -19 20 -39 40 -39 20 0 270
250 270 271 0 19 -20 39 -40 39 -8 0 -73 -57 -143 -128z"/>
<path d="M302 127 c-76 -76 -90 -110 -51 -122 17 -6 36 7 95 66 74 73 85 94
62 117 -20 20 -31 14 -106 -61z"/>
</g>
</svg>
