<svg xmlns="http://www.w3.org/2000/svg" version="1.1" xmlns:xlink="http://www.w3.org/1999/xlink" width="512" height="512" x="0" y="0" viewBox="0 0 552.698 552.699" style="enable-background:new 0 0 512 512" xml:space="preserve" class=""><g><path d="M552.613 274.933c-1.12-37.699-16.162-68.723-45.299-92.6-27.031-22.138-58.894-34.033-92.445-41.822-45.452-10.557-91.693-13.369-138.188-13.243-13.868.371-27.731.324-41.616.954-26.982 1.223-53.765 3.729-80.278 8.784-35.547 6.772-69.693 17.31-99.827 38.277-28.516 19.847-46.825 46.342-52.78 80.916-4.907 28.467-1.3 56.129 8.478 83.03 13.042 35.88 37.853 60.321 73.469 73.86 24.259 9.223 49.492 11.999 75.301 12.279 26.327.289 49.452-7.574 69.955-23.97 10.382-8.299 19.499-18.076 30.348-25.8 11.35-8.093 20.853-8.247 32.474-.564 7.98 5.273 14.794 11.957 21.855 18.327 17.254 15.569 36.31 27.881 59.953 30.621 30.537 3.533 60.574.662 89.795-9.139 34.746-11.648 60.219-33.766 75.187-67.435 10.249-23.049 14.36-47.331 13.618-72.475zm-403.375 52.936c-39.026 0-70.648-37.309-70.648-37.309s31.622-37.311 70.648-37.311c39.017 0 70.641 37.311 70.641 37.311s-31.624 37.309-70.641 37.309zm266.714 0c-39.017 0-70.646-37.309-70.646-37.309s31.629-37.311 70.646-37.311 70.65 37.311 70.65 37.311-31.633 37.309-70.65 37.309z" fill="#ffffff" opacity="1" data-original="#000000"></path></g></svg>